<svg width="32" height="32" viewBox="0 0 32 32" fill="none" xmlns="http://www.w3.org/2000/svg">
<rect width="32" height="32" rx="5" fill="#A2CA95"/>
<path d="M21.7738 24.3277C21.9109 22.3897 22.2613 20.4366 22.8199 18.4682C22.9672 17.9456 23.1094 17.5043 23.2516 17.1491L24.0133 16.4389C23.3988 15.0844 22.9672 14.1002 22.7082 13.4711L22.048 11.7919C21.8602 11.2896 21.723 10.8736 21.6367 10.5489L23.3379 8.35223L25.5266 15.1807L25.7145 14.9981C25.75 14.8155 25.8008 14.5669 25.8668 14.2574L26.6285 10.7163L26.8621 9.54951C26.9332 9.19438 26.984 8.89506 27.0246 8.64141L28.9645 9.80824C28.868 10.6555 28.6801 11.5686 28.3957 12.5478L27.7863 14.6531C27.5477 15.4598 27.3293 16.1294 27.1363 16.6672L26.4762 17.2557C27.1668 18.7878 27.6137 19.8024 27.8168 20.2996L28.3399 21.5882C28.6496 22.3542 28.868 22.9782 29 23.45L27.2938 25.662C25.9227 21.4056 25.1609 19.0364 25.0188 18.5646L24.7953 18.7472L24.643 19.4727C24.582 19.7771 24.516 20.1119 24.4449 20.4873L24.2316 21.6389C23.9727 23.0391 23.8203 24.1096 23.7695 24.8502L21.7738 24.3277Z" fill="#F15AC0"/>
<path d="M17.5134 12.913C17.5134 11.9339 17.5744 11.3708 17.6962 11.2186C17.8181 11.0664 17.9603 10.9142 18.1126 10.7569C18.265 10.5946 18.4376 10.4373 18.6205 10.2851C18.8033 10.1329 18.9962 9.98579 19.1943 9.84881C19.3974 9.71183 19.5955 9.585 19.7884 9.47847C20.1998 9.2451 20.5095 9.12842 20.7127 9.12842C20.9158 9.12842 21.0884 9.14871 21.2154 9.18422C21.3423 9.21466 21.4591 9.26539 21.5658 9.33642C21.8095 9.50383 21.9466 9.74735 21.9771 10.072C22.1244 11.5991 22.1955 13.4153 22.1955 15.5206V16.1649L19.0318 16.2309V17.6514C19.3771 17.7884 19.7834 17.9152 20.2607 18.0369L21.3982 18.3413C21.6877 18.4124 21.9873 18.4986 22.292 18.595L21.9009 20.9895C20.6923 20.675 19.4025 20.1677 18.0416 19.4676C17.7267 19.3002 17.5693 18.9958 17.5591 18.5595L17.5134 12.913ZM20.7076 13.8059C20.7076 13.121 20.667 12.3956 20.5806 11.6396C20.4029 11.6396 20.2658 11.6549 20.1591 11.6853C20.0525 11.7157 19.9459 11.7563 19.8443 11.8071C19.7377 11.8578 19.631 11.9187 19.5193 11.9846C19.2603 12.1368 19.0877 12.2687 19.0064 12.3803V14.3487L20.7127 14.0443V13.8059H20.7076Z" fill="#F15AC0"/>
<path d="M14.6748 3.69503L16.8076 3L16.8686 13.9124L16.6045 25.2967L14.7916 25.5706L14.6748 3.69503Z" fill="#F15AC0"/>
<path d="M10.922 13.9124C10.922 15.7388 10.9779 17.3165 11.0845 18.6559L12.3591 18.5443C12.5927 16.9259 12.7095 15.3431 12.7095 13.8008C12.7095 13.1819 12.6841 12.6289 12.6384 12.1419C12.3795 11.9136 11.4603 11.802 9.89116 11.802H9.56108C9.46968 11.802 9.37319 11.8071 9.26147 11.8223L9.54077 9.1893C9.61187 9.18422 9.68296 9.17408 9.7439 9.169C9.80991 9.15378 9.87593 9.14871 9.93687 9.14871L10.1298 9.12842H10.6732C11.5314 9.12842 12.4658 9.33135 13.4865 9.73213C13.8115 9.87418 14.0095 10.1278 14.0806 10.4931C14.1923 11.0512 14.2482 11.9643 14.2482 13.2276C14.2482 15.5359 14.0451 17.7681 13.6439 19.9242C13.6084 20.122 13.5677 20.2894 13.522 20.4213C13.4763 20.5583 13.4002 20.6446 13.2884 20.6801C13.1767 20.7257 13.0447 20.7663 12.8923 20.8069C12.74 20.8475 12.5927 20.8779 12.4455 20.9084C12.1255 20.9591 11.9072 20.9895 11.7853 20.9895C11.6634 20.9895 11.5365 20.9845 11.3943 20.9794C11.2572 20.9794 11.1048 20.9743 10.9423 20.9591C10.5107 20.9236 10.2162 20.8526 10.0689 20.7562C9.91655 20.6648 9.81499 20.5076 9.75913 20.2793C9.70835 20.051 9.65757 19.6908 9.60171 19.1886C9.47983 18.0217 9.4189 16.6925 9.4189 15.201C9.4189 14.6328 9.42905 14.0697 9.44429 13.5117L10.9169 12.9993V13.9124H10.922Z" fill="#F15AC0"/>
<path d="M3 6.37368L5.07696 5.67865L5.11251 15.683L5.06172 18.7269L5.35118 18.8334L8.25587 12.2332L9.77424 14.3081C9.56603 14.851 9.3426 15.3634 9.09377 15.8352L8.36251 17.2404C8.10861 17.697 7.86486 18.113 7.62618 18.4986L6.90509 19.6046C6.98126 19.7263 7.09806 19.9343 7.25548 20.2235C8.73322 23.029 9.72346 25.2409 10.2262 26.8541L8.53517 28.9747L5.58477 21.1164L4.99063 21.6186L4.84336 27.8536L3.03047 28.0971L3 6.37368Z" fill="#F15AC0"/>
<path d="M15.7514 28.6703C13.6897 28.6703 11.3182 27.4528 11.2217 27.402L11.6432 26.5903C11.6635 26.6005 13.9182 27.7572 15.7514 27.7572C17.5846 27.7572 19.6108 26.6106 19.6311 26.6005L20.083 27.3919C19.9916 27.4426 17.8233 28.6703 15.7514 28.6703Z" fill="#F15AC0"/>
</svg>
