<svg width="513" height="513" viewBox="0 0 513 513" fill="none" xmlns="http://www.w3.org/2000/svg">
<g clip-path="url(#clip0_118_131)">
<path d="M370.2 420.4C372.9 382.2 379.8 343.7 390.8 304.9C393.7 294.6 396.5 285.9 399.3 278.9L414.3 264.9C402.2 238.2 393.7 218.8 388.6 206.4L375.6 173.3C371.9 163.4 369.2 155.2 367.5 148.8L401 105.5L444.1 240.1L447.8 236.5C448.5 232.9 449.5 228 450.8 221.9L465.8 152.1L470.4 129.1C471.8 122.1 472.8 116.2 473.6 111.2L511.8 134.2C509.9 150.9 506.2 168.9 500.6 188.2L488.6 229.7C483.9 245.6 479.6 258.8 475.8 269.4L462.8 281C476.4 311.2 485.2 331.2 489.2 341L499.5 366.4C505.6 381.5 509.9 393.8 512.5 403.1L478.9 446.7C451.9 362.8 436.9 316.1 434.1 306.8L429.7 310.4L426.7 324.7C425.5 330.7 424.2 337.3 422.8 344.7L418.6 367.4C413.5 395 410.5 416.1 409.5 430.7L370.2 420.4Z" fill="url(#paint0_linear_118_131)"/>
<path d="M286.3 195.4C286.3 176.1 287.5 165 289.9 162C292.3 159 295.1 156 298.1 152.9C301.1 149.7 304.5 146.6 308.1 143.6C311.7 140.6 315.5 137.7 319.4 135C323.4 132.3 327.3 129.8 331.1 127.7C339.2 123.1 345.3 120.8 349.3 120.8C353.3 120.8 356.7 121.2 359.2 121.9C361.7 122.5 364 123.5 366.1 124.9C370.9 128.2 373.6 133 374.2 139.4C377.1 169.5 378.5 205.3 378.5 246.8V259.5L316.2 260.8V288.8C323 291.5 331 294 340.4 296.4L362.8 302.4C368.5 303.8 374.4 305.5 380.4 307.4L372.7 354.6C348.9 348.4 323.5 338.4 296.7 324.6C290.5 321.3 287.4 315.3 287.2 306.7L286.3 195.4ZM349.2 213C349.2 199.5 348.4 185.2 346.7 170.3C343.2 170.3 340.5 170.6 338.4 171.2C336.3 171.8 334.2 172.6 332.2 173.6C330.1 174.6 328 175.8 325.8 177.1C320.7 180.1 317.3 182.7 315.7 184.9V223.7L349.3 217.7V213H349.2Z" fill="url(#paint1_linear_118_131)"/>
<path d="M230.4 13.7L272.4 0L273.6 215.1L268.4 439.5L232.7 444.9L230.4 13.7Z" fill="url(#paint2_linear_118_131)"/>
<path d="M156.5 215.1C156.5 251.1 157.6 282.2 159.7 308.6L184.8 306.4C189.4 274.5 191.7 243.3 191.7 212.9C191.7 200.7 191.2 189.8 190.3 180.2C185.2 175.7 167.1 173.5 136.2 173.5H129.7C127.9 173.5 126 173.6 123.8 173.9L129.3 122C130.7 121.9 132.1 121.7 133.3 121.6C134.6 121.3 135.9 121.2 137.1 121.2L140.9 120.8H151.6C168.5 120.8 186.9 124.8 207 132.7C213.4 135.5 217.3 140.5 218.7 147.7C220.9 158.7 222 176.7 222 201.6C222 247.1 218 291.1 210.1 333.6C209.4 337.5 208.6 340.8 207.7 343.4C206.8 346.1 205.3 347.8 203.1 348.5C200.9 349.4 198.3 350.2 195.3 351C192.3 351.8 189.4 352.4 186.5 353C180.2 354 175.9 354.6 173.5 354.6C171.1 354.6 168.6 354.5 165.8 354.4C163.1 354.4 160.1 354.3 156.9 354C148.4 353.3 142.6 351.9 139.7 350C136.7 348.2 134.7 345.1 133.6 340.6C132.6 336.1 131.6 329 130.5 319.1C128.1 296.1 126.9 269.9 126.9 240.5C126.9 229.3 127.1 218.2 127.4 207.2L156.4 197.1V215.1H156.5Z" fill="url(#paint3_linear_118_131)"/>
<path d="M0.5 66.5L41.4 52.8L42.1 250L41.1 310L46.8 312.1L104 182L133.9 222.9C129.8 233.6 125.4 243.7 120.5 253L106.1 280.7C101.1 289.7 96.3 297.9 91.6 305.5L77.4 327.3C78.9 329.7 81.2 333.8 84.3 339.5C113.4 394.8 132.9 438.4 142.8 470.2L109.5 512L51.4 357.1L39.7 367L36.8 489.9L1.1 494.7L0.5 66.5Z" fill="url(#paint4_linear_118_131)" stroke="url(#paint5_linear_118_131)" stroke-miterlimit="10"/>
<path d="M251.6 506C211 506 164.3 482 162.4 481L170.7 465C171.1 465.2 215.5 488 251.6 488C287.7 488 327.6 465.4 328 465.2L336.9 480.8C335.1 481.8 292.4 506 251.6 506Z" fill="url(#paint6_linear_118_131)"/>
</g>
<defs>
<linearGradient id="paint0_linear_118_131" x1="367.5" y1="276.1" x2="512.5" y2="276.1" gradientUnits="userSpaceOnUse">
<stop stop-color="#FA796E"/>
<stop offset="1" stop-color="#BA729C"/>
</linearGradient>
<linearGradient id="paint1_linear_118_131" x1="286.3" y1="237.7" x2="380.4" y2="237.7" gradientUnits="userSpaceOnUse">
<stop stop-color="#FA796E"/>
<stop offset="1" stop-color="#BA729C"/>
</linearGradient>
<linearGradient id="paint2_linear_118_131" x1="230.4" y1="222.45" x2="273.51" y2="222.45" gradientUnits="userSpaceOnUse">
<stop stop-color="#FA796E"/>
<stop offset="1" stop-color="#BA729C"/>
</linearGradient>
<linearGradient id="paint3_linear_118_131" x1="123.8" y1="237.7" x2="222.1" y2="237.7" gradientUnits="userSpaceOnUse">
<stop stop-color="#FA796E"/>
<stop offset="1" stop-color="#BA729C"/>
</linearGradient>
<linearGradient id="paint4_linear_118_131" x1="0.5" y1="282.4" x2="142.8" y2="282.4" gradientUnits="userSpaceOnUse">
<stop stop-color="#FA796E"/>
<stop offset="1" stop-color="#BA729C"/>
</linearGradient>
<linearGradient id="paint5_linear_118_131" x1="2.62378e-09" y1="282.55" x2="143.36" y2="282.55" gradientUnits="userSpaceOnUse">
<stop stop-color="white"/>
<stop offset="1" stop-color="#FA796E"/>
</linearGradient>
<linearGradient id="paint6_linear_118_131" x1="162.4" y1="485.5" x2="336.9" y2="485.5" gradientUnits="userSpaceOnUse">
<stop stop-color="#BA729C"/>
<stop offset="1" stop-color="#FA796E"/>
</linearGradient>
<clipPath id="clip0_118_131">
<rect width="512.5" height="513" fill="white"/>
</clipPath>
</defs>
</svg>
